<?xml version="1.0" encoding="utf-8"?>
<!-- Generator: Adobe Illustrator 22.1.0, SVG Export Plug-In . SVG Version: 6.00 Build 0)  -->
<svg version="1.1" id="Layer_1" xmlns="http://www.w3.org/2000/svg" xmlns:xlink="http://www.w3.org/1999/xlink" x="0px" y="0px"
	 width="21.2px" height="22.4px" viewBox="0 0 21.2 22.4" style="enable-background:new 0 0 21.2 22.4;" xml:space="preserve">
<style type="text/css">
	.st0{fill:#FFFFFF;}
</style>
<path class="st0" d="M12.6,11.6l-0.1-0.1c-0.4-0.4-0.9-0.5-1.5-0.5l-0.1-0.1c-0.4-0.4-0.9-0.5-1.4-0.5l-0.1-0.1
	C9,10,8.5,9.9,8.2,9.9V7.2c0-1.1-0.6-1.9-1.4-2.2c0.4-0.5,0.6-1.1,0.6-1.8c0-0.4-0.1-0.6-0.1-0.8l4.6-1.2l1.9,5.7l7.4-3.6l-0.5-0.9
	l-6.4,3.2L12.4,0L6.8,1.5C6.2,0.8,5.2,0.2,4.3,0.2c-1.8,0-3,1.4-3,3c0,1.4,0.9,2.6,2.2,2.9C3.4,6.5,3.3,6.8,3.3,7.2v4.4
	c-0.7-0.5-1.5-0.7-2.2-0.4C-0.3,12,0,14,0.1,14.6l0.1,0.4l0.4,0.2c1.6,1.1,3,4.8,3.6,6.7l0,0.6h1.5v-1.3V21c-0.4-1.3-1.8-5.4-3.9-7
	c0-0.5,0-0.8,0-0.9c0.1,0,0.7,0.2,1.6,1.2L5,15.7V7.2c0-0.4,0.4-0.7,0.7-0.7s0.7,0.4,0.7,0.7v4.7l1.1-0.1c0.2,0,0.5,0,0.6,0v0.7
	l1.1-0.1c0.2,0,0.5,0,0.6,0V13l1.1-0.1c0.2,0,0.5,0,0.6,0v0.7l1.1-0.1c0.2,0,0.5,0,0.6,0V16c0,0.4-0.8,1.8-1.1,2.5
	c-0.6,1.2-1.1,2.1-1.2,2.7v0.1v1.2h1.8v-0.6c0-0.4,0.8-1.8,1.1-2.5c0.9-1.9,1.3-2.6,1.3-3.2v-2.8c0-0.4-0.1-0.8-0.5-1.1
	C13.7,11.8,13.1,11.6,12.6,11.6z"/>
</svg>
