<?xml version="1.0" encoding="utf-8"?>
<!-- Generator: Adobe Illustrator 21.0.2, SVG Export Plug-In . SVG Version: 6.00 Build 0)  -->
<svg version="1.1" id="Layer_1" xmlns="http://www.w3.org/2000/svg" xmlns:xlink="http://www.w3.org/1999/xlink" x="0px" y="0px"
	 width="21px" height="20px" viewBox="0 0 21 20" style="enable-background:new 0 0 21 20;" xml:space="preserve">
<style type="text/css">
	.st0{fill:#FFFFFF;}
	.st1{fill:none;stroke:#FFFFFF;stroke-width:0.725;stroke-miterlimit:10;}
	.st2{fill:none;stroke:#FFFFFF;stroke-miterlimit:10;}
</style>
<path class="st0" d="M13.8,17.8l-6.7-2.3V2.2l6.7,2.3 M19.9,0c-0.1,0-0.1,0-0.2,0l-5.9,2.3L7.2,0L0.9,2.1C0.7,2.2,0.5,2.4,0.5,2.6
	v16.8c0,0.3,0.2,0.6,0.6,0.6c0.1,0,0.1,0,0.2,0l5.9-2.3l6.7,2.3l6.3-2.1c0.2-0.1,0.4-0.3,0.4-0.5V0.6C20.5,0.2,20.3,0,19.9,0z"/>
</svg>
