<?xml version="1.0" encoding="utf-8"?>
<!-- Generator: Adobe Illustrator 22.1.0, SVG Export Plug-In . SVG Version: 6.00 Build 0)  -->
<svg version="1.1" id="Layer_1" xmlns="http://www.w3.org/2000/svg" xmlns:xlink="http://www.w3.org/1999/xlink" x="0px" y="0px"
	 width="17.5px" height="23px" viewBox="0 0 17.5 23" style="enable-background:new 0 0 17.5 23;" xml:space="preserve">
<style type="text/css">
	.st0{fill:#FFFFFF;}
</style>
<path class="st0" d="M8.7,0c3.7,0,6.6,2.9,6.6,6.6c0,4.8-6.6,12.1-6.6,12.1S2.2,11.4,2.2,6.6C2.2,2.9,5.2,0,8.7,0 M8.7,4.4
	c-1.3,0-2.2,1-2.2,2.2s1,2.2,2.2,2.2s2.2-1,2.2-2.2S10,4.4,8.7,4.4 M17.5,18.6c0,2.4-3.9,4.4-8.7,4.4S0,21,0,18.6
	c0-1.4,1.4-2.6,3.5-3.4l0.7,0.9c-1.2,0.5-2,1.1-2,2c0,1.5,3,2.8,6.6,2.8s6.6-1.3,6.6-2.8c0-0.8-0.7-1.4-2-2l0.7-1
	C16.2,16,17.5,17.2,17.5,18.6z"/>
</svg>
