<?xml version="1.0" encoding="utf-8"?>
<!-- Generator: Adobe Illustrator 23.0.6, SVG Export Plug-In . SVG Version: 6.00 Build 0)  -->
<svg version="1.1" id="Layer_1" xmlns="http://www.w3.org/2000/svg" xmlns:xlink="http://www.w3.org/1999/xlink" x="0px" y="0px"
	 width="162.6px" height="40px" viewBox="0 0 162.6 40" style="enable-background:new 0 0 162.6 40;" xml:space="preserve">
<style type="text/css">
	.st0{clip-path:url(#SVGID_2_);}
	.st1{clip-path:url(#SVGID_4_);}
	.st2{clip-path:url(#SVGID_6_);}
	.st3{fill:#FFFFFF;}
	.st4{fill:#2CAD79;}
	.st5{fill:#005128;}
</style>
<g>
	<g>
		<defs>
			<polyline id="SVGID_1_" points="163,40.1 0,40.1 0,0 163,0 163,40.1 			"/>
		</defs>
		<clipPath id="SVGID_2_">
			<use xlink:href="#SVGID_1_"  style="overflow:visible;"/>
		</clipPath>
		<g class="st0">
			<g>
				<g>
					<defs>
						<rect id="SVGID_3_" x="-0.2" y="-0.4" width="163.6" height="40.5"/>
					</defs>
					<clipPath id="SVGID_4_">
						<use xlink:href="#SVGID_3_"  style="overflow:visible;"/>
					</clipPath>
					<g class="st1">
						<g>
							<g>
								<defs>
									<rect id="SVGID_5_" x="-0.2" y="-0.4" width="163.6" height="40.5"/>
								</defs>
								<clipPath id="SVGID_6_">
									<use xlink:href="#SVGID_5_"  style="overflow:visible;"/>
								</clipPath>
								<g class="st2">
									<path class="st3" d="M42.7,14h16.6v3.2h-6.6v17.4h-3.6V17.2h-6.4V14L42.7,14z M58.5,19.8h3v2.8l0,0
										c0.2-0.4,0.2-0.8,0.6-1.2c0.2-0.4,0.6-0.8,1-1c0.4-0.4,0.8-0.6,1.4-0.8c0.4-0.2,1-0.2,1.4-0.2h0.8h0.4v3.2l-0.8-0.2h-0.8
										c-0.6,0-1,0.2-1.6,0.4c-0.4,0.2-1,0.6-1.2,1c-0.4,0.4-0.6,1-0.8,1.6c-0.2,0.8-0.4,1.4-0.4,2.2v7h-3.2L58.5,19.8L58.5,19.8z
										 M82.2,34.7H79v-2.2l0,0c-0.4,0.8-1,1.4-1.8,1.8c-0.8,0.4-1.6,0.6-2.4,0.6c-1.6,0.2-3-0.4-4.2-1.4c-1-1.2-1.4-2.8-1.4-4.4
										v-9.4h3.2v9.2c0,1,0.2,2,0.8,2.8c0.6,0.6,1.4,0.8,2,0.8c0.6,0,1.2,0,1.8-0.4c0.4-0.2,0.8-0.4,1.2-0.8
										c0.4-0.4,0.6-0.8,0.6-1.2c0.2-0.6,0.2-1,0.2-1.6v-8.6h3.2L82.2,34.7z M87.8,29.9c0,0.8,0.4,1.6,1,2
										c0.6,0.4,1.4,0.6,2.2,0.6c0.4,0,0.6,0,1,0s0.8-0.2,1.2-0.2c0.4-0.2,0.6-0.4,0.8-0.6s0.4-0.6,0.4-1s-0.2-0.8-0.4-1
										c-0.4-0.2-0.6-0.6-1-0.6c-0.6-0.2-1-0.4-1.6-0.4l-1.8-0.6c-0.6-0.2-1.2-0.2-1.8-0.4c-0.6-0.2-1-0.4-1.6-0.8
										c-0.4-0.4-0.8-0.8-1-1.2c-0.2-0.6-0.4-1.2-0.4-1.8c0-0.8,0.2-1.4,0.6-2c0.4-0.6,0.8-1,1.4-1.4c0.6-0.4,1.4-0.6,2-0.8
										c0.6-0.2,1.4-0.2,2.2-0.2c0.8,0,1.4,0,2.2,0.2c0.6,0.2,1.4,0.4,1.8,0.8c0.6,0.4,1,0.8,1.4,1.4c0.4,0.6,0.6,1.4,0.8,2.2
										h-3.4c0-0.6-0.4-1.2-1-1.6c-0.6-0.2-1.2-0.4-2-0.4c-0.2,0-0.6,0-0.8,0c-0.4,0-0.6,0.2-1,0.2c-0.2,0.2-0.6,0.2-0.8,0.4
										c0,0.4,0,0.6,0,0.8c0,0.4,0.2,0.8,0.4,1c0.4,0.2,0.6,0.4,1,0.6c0.6,0.2,1,0.4,1.6,0.4l1.8,0.4c0.6,0.2,1.2,0.4,1.8,0.4
										c0.6,0.2,1,0.4,1.6,0.8c0.4,0.4,0.8,0.8,1,1.2c0.2,0.6,0.4,1.2,0.4,1.8c0,0.8-0.2,1.6-0.6,2.2s-1,1-1.6,1.4
										c-0.6,0.4-1.4,0.6-2.2,0.8c-0.8,0.2-1.6,0.2-2.4,0.2s-1.8,0-2.6-0.4c-0.8-0.2-1.4-0.6-2-1c-0.6-0.4-1-1-1.4-1.6
										c-0.4-0.8-0.6-1.4-0.6-2.2L87.8,29.9L87.8,29.9z M98.6,19.8h2.4v-4.6h3.2v4.4h2.8v2.4h-2.8v8c0,0.4,0,0.6,0,1
										c0,0.2,0,0.4,0.2,0.6c0.2,0.2,0.2,0.4,0.4,0.4c0.2,0,0.6,0.2,0.8,0.2h0.6c0.2,0,0.4,0,0.8-0.2v2.6h-0.8c-0.4,0-0.6,0-1,0
										c-0.8,0-1.4,0-2-0.2c-0.4-0.2-0.8-0.4-1.2-0.8c-0.2-0.4-0.6-0.8-0.6-1.2c-0.2-0.6-0.2-1-0.2-1.6v-8.8h-2.4L98.6,19.8
										L98.6,19.8z M109.7,19.8h3v2l0,0c0.4-0.8,1-1.4,2-1.8c0.8-0.4,1.8-0.6,2.6-0.6c1,0,2,0.2,3,0.6c0.8,0.4,1.6,1,2.2,1.8
										c0.6,0.8,1,1.6,1.2,2.6c0.6,2,0.6,4,0,6c-0.2,0.8-0.6,1.8-1.2,2.6c-0.6,0.8-1.2,1.4-2,1.8s-1.8,0.6-2.8,0.6
										c-0.4,0-1,0-1.4-0.2c-0.4,0-1-0.2-1.4-0.4c-0.8-0.4-1.4-1-2-1.8l0,0v7h-3.2L109.7,19.8z M121.1,27.3c0-0.6,0-1.4-0.2-2
										c-0.2-0.6-0.4-1.2-0.8-1.6s-0.8-0.8-1.2-1.2c-0.8-0.4-1.4-0.4-2-0.4c-1.2,0-2.4,0.4-3,1.4c-0.8,1.2-1.2,2.4-1,3.8
										c0,0.8,0,1.4,0.2,2c0.2,0.6,0.4,1.2,0.8,1.6s0.8,0.8,1.2,1c1.2,0.6,2.6,0.6,3.6,0c0.6-0.4,1-0.8,1.4-1.4s0.6-1,0.8-1.6
										C120.9,28.5,121.1,27.9,121.1,27.3 M126.7,14h3.2v3.2h-3.2C126.7,17.2,126.7,14,126.7,14z M126.7,19.6h3.2v14.8h-3.2
										C126.7,34.5,126.7,19.6,126.7,19.6z M132.9,14h3.4v20.7h-3.2L132.9,14z M146.4,35.1c-1,0-2.2-0.2-3.2-0.6
										c-1.8-0.8-3.2-2.2-3.8-4.2c-0.6-2-0.6-4.2,0-6.2c0.4-1,0.8-1.8,1.4-2.4c0.6-0.8,1.4-1.2,2.4-1.6c2-0.8,4.2-0.8,6.4,0
										c0.8,0.4,1.6,1,2.2,1.6c0.6,0.8,1.2,1.6,1.4,2.4c0.6,2,0.6,4.2,0,6.2c-0.4,1-0.8,1.8-1.4,2.4c-0.6,0.8-1.4,1.2-2.4,1.6
										C148.4,34.9,147.4,35.1,146.4,35.1 M146.2,32.5c0.6,0,1.4-0.2,1.8-0.4c0.6-0.2,1-0.8,1.4-1.2c0.4-0.6,0.6-1,0.8-1.6
										c0.2-0.6,0.2-1.2,0.2-2c0-0.6,0-1.2-0.2-2c-0.2-0.6-0.4-1.2-0.8-1.6c-0.4-0.4-0.8-1-1.4-1.2c-1.2-0.6-2.6-0.6-3.8,0
										c-0.4,0.4-1,0.8-1.2,1.2c-0.4,0.6-0.6,1-0.8,1.6c-0.2,0.6-0.2,1.2-0.2,2c0,0.6,0,1.2,0.2,2c0.2,0.6,0.4,1.2,0.8,1.6
										c0.4,0.4,0.8,1,1.4,1.2C145,32.3,145.8,32.5,146.2,32.5 M154.8,19.6h2.4v-4.4h3.2v4.4h2.8v2.4h-2.8v8c0,0.4,0,0.6,0,1
										c0,0.2,0,0.4,0.2,0.6s0.2,0.4,0.4,0.4c0.2,0,0.6,0.2,0.8,0.2h0.6c0.2,0,0.4,0,0.6-0.2v2.6h-0.6c-0.4,0-0.6,0-1,0
										c-0.8,0-1.4,0-2-0.2c-0.4-0.2-0.8-0.4-1.2-0.8c-0.4-0.4-0.6-0.8-0.6-1.2c-0.2-0.6-0.2-1-0.2-1.6v-8.8H155L154.8,19.6
										L154.8,19.6z"/>
									<polygon class="st4" points="38.9,14 24.1,14 19.4,-0.4 14.6,14 -0.2,14 11.8,22.9 7.2,37.3 19.4,28.5 31.5,37.3 
										26.9,22.9 									"/>
									<polygon class="st5" points="27.9,26.1 26.9,22.9 19.4,28.5 									"/>
								</g>
							</g>
						</g>
					</g>
				</g>
			</g>
		</g>
	</g>
</g>
</svg>
