<?xml version="1.0" encoding="UTF-8"?>
<!-- Generator: Adobe Illustrator 21.0.2, SVG Export Plug-In . SVG Version: 6.00 Build 0)  -->
<svg version="1.1" id="new_x5F_banners" xmlns="http://www.w3.org/2000/svg" xmlns:xlink="http://www.w3.org/1999/xlink" x="0px" y="0px" width="80px" height="80px" viewBox="0 0 80 80" enable-background="new 0 0 80 80" xml:space="preserve">
<polygon fill="#00A4E1" points="74,0 0,74 0,47 47.1,0.1 "/>
<g>
	<path fill="#FFFFFF" d="M7.4,57.7l-4.6-4.6l1.9-1.9c0.5-0.5,0.9-0.8,1.2-0.9c0.3-0.1,0.6-0.2,1-0.1c0.3,0.1,0.6,0.2,0.9,0.5   c0.3,0.3,0.5,0.7,0.5,1.1c0,0.4-0.1,0.9-0.5,1.3C8.2,53.1,8.5,53,8.8,53s0.7,0.1,1.3,0.2l1.4,0.3l-1.1,1.1l-1.7-0.3   c-0.6-0.1-1-0.2-1.2-0.2c-0.2,0-0.3,0-0.5,0.1c-0.1,0.1-0.3,0.2-0.5,0.4l-0.2,0.2l1.9,1.9L7.4,57.7z M5.7,54.1l0.7-0.7   c0.4-0.4,0.7-0.7,0.8-0.9c0.1-0.1,0.1-0.3,0.1-0.5S7.1,51.8,7,51.7c-0.2-0.2-0.3-0.2-0.5-0.2c-0.2,0-0.4,0-0.5,0.2   c-0.1,0.1-0.3,0.3-0.7,0.7L4.5,53L5.7,54.1z"/>
	<path fill="#FFFFFF" d="M12,53.1l-4.6-4.6l3.4-3.4l0.8,0.8l-2.5,2.5l1,1l2.3-2.3l0.8,0.8l-2.3,2.3l1.2,1.2l2.5-2.5l0.8,0.8L12,53.1   z"/>
	<path fill="#FFFFFF" d="M17.5,44.3l1.2-0.6c0.4,0.6,0.5,1.2,0.4,1.8C19,46,18.7,46.5,18.2,47c-0.6,0.6-1.3,0.9-2.1,0.9   c-0.8,0-1.6-0.4-2.3-1.1c-0.8-0.8-1.2-1.5-1.2-2.4c0-0.8,0.3-1.5,0.9-2.2c0.6-0.6,1.2-0.8,1.9-0.9c0.4,0,0.8,0.1,1.3,0.4L16,42.9   c-0.3-0.2-0.6-0.3-0.9-0.2c-0.3,0-0.6,0.2-0.8,0.4c-0.3,0.3-0.5,0.7-0.5,1.2c0,0.5,0.3,1,0.9,1.5c0.6,0.6,1.1,0.9,1.5,0.9   s0.8-0.1,1.2-0.4c0.2-0.2,0.4-0.5,0.4-0.9C17.9,45,17.7,44.7,17.5,44.3z"/>
	<path fill="#FFFFFF" d="M18.4,42.2c-0.5-0.5-0.8-0.9-1-1.4c-0.1-0.3-0.2-0.7-0.2-1c0-0.4,0.1-0.7,0.2-1c0.2-0.4,0.4-0.8,0.8-1.2   c0.7-0.7,1.4-1,2.2-1s1.6,0.4,2.3,1.1c0.7,0.7,1.1,1.5,1.1,2.3c0,0.8-0.3,1.6-1,2.2c-0.7,0.7-1.4,1-2.2,1   C19.9,43.3,19.1,42.9,18.4,42.2z M19.3,41.2c0.5,0.5,1,0.8,1.5,0.8c0.5,0,0.9-0.1,1.3-0.5c0.4-0.4,0.5-0.8,0.5-1.3   c0-0.5-0.3-1-0.8-1.5c-0.5-0.5-1-0.8-1.5-0.8c-0.5,0-0.9,0.1-1.3,0.5c-0.4,0.4-0.6,0.8-0.5,1.3C18.5,40.2,18.8,40.7,19.3,41.2z"/>
	<path fill="#FFFFFF" d="M25.8,39.3l-4.6-4.6l1.4-1.4l3.9,2.3l-2.3-3.9l1.4-1.4l4.6,4.6l-0.9,0.9l-3.6-3.6l2.7,4.5l-0.9,0.9L23,34.9   l3.6,3.6L25.8,39.3z"/>
	<path fill="#FFFFFF" d="M31.1,34l-4.6-4.6l1.4-1.4l3.9,2.3l-2.3-3.9l1.4-1.4l4.6,4.6l-0.9,0.9L31,26.9l2.7,4.5l-0.9,0.9l-4.5-2.7   l3.6,3.6L31.1,34z"/>
	<path fill="#FFFFFF" d="M36.4,28.7l-4.6-4.6l3.4-3.4l0.8,0.8L33.5,24l1,1l2.3-2.3l0.8,0.8l-2.3,2.3l1.2,1.2l2.5-2.5l0.8,0.8   L36.4,28.7z"/>
	<path fill="#FFFFFF" d="M40.6,24.4l-4.6-4.6L37,19l4.9,1.2l-3-3l0.9-0.9l4.6,4.6l-0.9,0.9l-4.8-1.1l3,3L40.6,24.4z"/>
	<path fill="#FFFFFF" d="M40.7,15.3l1.7-1.7c0.4-0.4,0.7-0.6,1-0.8c0.3-0.2,0.7-0.3,1.1-0.3c0.4,0,0.8,0.1,1.2,0.3   c0.4,0.2,0.8,0.5,1.2,0.9c0.4,0.4,0.7,0.7,0.8,1.1c0.2,0.4,0.3,0.9,0.3,1.3c0,0.3-0.1,0.7-0.3,1c-0.1,0.3-0.4,0.6-0.7,0.9l-1.7,1.7   L40.7,15.3z M42.4,15.2l3,3l0.7-0.7c0.3-0.3,0.4-0.5,0.5-0.6c0.1-0.2,0.2-0.4,0.2-0.6c0-0.2-0.1-0.4-0.2-0.7   c-0.1-0.3-0.4-0.6-0.7-0.9s-0.7-0.6-0.9-0.7c-0.3-0.1-0.5-0.2-0.7-0.2c-0.2,0-0.4,0.1-0.6,0.2c-0.2,0.1-0.4,0.3-0.8,0.7L42.4,15.2z   "/>
	<path fill="#FFFFFF" d="M49.8,15.3l-4.6-4.6l3.4-3.4l0.8,0.8L47,10.6l1,1l2.3-2.3L51,10l-2.3,2.3l1.2,1.2l2.5-2.5l0.8,0.8   L49.8,15.3z"/>
	<path fill="#FFFFFF" d="M49.5,6.5l1.7-1.7c0.4-0.4,0.7-0.6,1-0.8c0.3-0.2,0.7-0.3,1.1-0.3c0.4,0,0.8,0.1,1.2,0.3s0.8,0.5,1.2,0.9   c0.4,0.4,0.7,0.7,0.8,1.1c0.2,0.4,0.3,0.9,0.3,1.3c0,0.3-0.1,0.7-0.3,1c-0.1,0.3-0.4,0.6-0.7,0.9L54.1,11L49.5,6.5z M51.2,6.3l3,3   l0.7-0.7c0.3-0.3,0.4-0.5,0.5-0.6c0.1-0.2,0.2-0.4,0.2-0.6c0-0.2-0.1-0.4-0.2-0.7S55,6.2,54.7,5.9S54,5.3,53.8,5.2S53.3,5,53,5   c-0.2,0-0.4,0.1-0.6,0.2c-0.2,0.1-0.4,0.3-0.8,0.7L51.2,6.3z"/>
</g>
</svg>