<?xml version="1.0" encoding="UTF-8"?>
<!-- Generator: Adobe Illustrator 21.0.2, SVG Export Plug-In . SVG Version: 6.00 Build 0)  -->
<svg version="1.1" id="new_x5F_banners" xmlns="http://www.w3.org/2000/svg" xmlns:xlink="http://www.w3.org/1999/xlink" x="0px" y="0px" width="80px" height="80px" viewBox="0 0 80 80" enable-background="new 0 0 80 80" xml:space="preserve">
<polygon fill="#4DB6AC" points="74,0 0,74 0,47 47.1,0.1 "/>
<g>
	<path fill="#FFFFFF" d="M7.3,59.4l-5.5-5.5l1.1-1.1l4.6,4.6l2.8-2.8l0.9,0.9L7.3,59.4z"/>
	<path fill="#FFFFFF" d="M17.1,49.7l-1.2,1.2l-1.8-0.8l-2.2,2.2l0.8,1.7l-1.2,1.2l-3.4-7.7l1.2-1.2L17.1,49.7z M12.8,49.5L10,48.2   l1.3,2.8L12.8,49.5z"/>
	<path fill="#FFFFFF" d="M15.6,47.5l1-1.2c0.4,0.3,0.8,0.4,1.2,0.4c0.4,0,0.7-0.2,1.1-0.6c0.4-0.4,0.6-0.7,0.6-1   c0-0.3-0.1-0.6-0.3-0.8c-0.1-0.1-0.3-0.2-0.5-0.2c-0.2,0-0.4,0-0.6,0.2c-0.2,0.1-0.6,0.3-1.1,0.7c-0.8,0.5-1.4,0.7-1.8,0.7   c-0.6,0-1.2-0.2-1.6-0.6c-0.3-0.3-0.5-0.6-0.6-1c-0.1-0.4,0-0.8,0.1-1.3c0.2-0.4,0.5-0.9,0.9-1.3c0.7-0.7,1.4-1.1,2-1.1   c0.7,0,1.3,0.2,1.8,0.7l-1.1,1.2c-0.3-0.2-0.6-0.3-0.9-0.3c-0.3,0-0.6,0.2-0.9,0.5c-0.3,0.3-0.5,0.6-0.6,1c0,0.2,0,0.4,0.2,0.5   c0.1,0.1,0.3,0.2,0.5,0.2c0.3,0,0.7-0.2,1.4-0.7c0.7-0.4,1.2-0.7,1.6-0.8c0.4-0.1,0.8-0.1,1.2,0c0.4,0.1,0.8,0.3,1.1,0.7   c0.3,0.3,0.5,0.7,0.6,1.2c0.1,0.5,0.1,0.9-0.1,1.4c-0.2,0.5-0.5,0.9-1,1.4c-0.7,0.7-1.4,1.1-2.1,1.1C17,48.3,16.3,48.1,15.6,47.5z"/>
	<path fill="#FFFFFF" d="M24.1,42.6L19.5,38l-1.7,1.7l-0.9-0.9l4.4-4.4l0.9,0.9l-1.6,1.6l4.6,4.6L24.1,42.6z"/>
	<path fill="#FFFFFF" d="M31.2,35.5L23.6,32l1.2-1.2l5.5,2.7L27.6,28l1.2-1.2l3.6,7.6L31.2,35.5z"/>
	<path fill="#FFFFFF" d="M34.9,31.8l-5.6-5.6l1.1-1.1l5.6,5.6L34.9,31.8z"/>
	<path fill="#FFFFFF" d="M37.1,29.6L31.5,24l4.1-4.1l0.9,0.9l-3,3l1.2,1.2l2.8-2.8l0.9,0.9L35.8,26l1.5,1.5l3.1-3.1l0.9,0.9   L37.1,29.6z"/>
	<path fill="#FFFFFF" d="M43.1,23.6l-6.9-4.2l1.2-1.2l4.7,3l-2.8-4.8l1.3-1.3l4.9,2.9l-3-4.7l1.1-1.1l4.2,6.9l-1.2,1.2l-5.3-3.1   l3.1,5.3L43.1,23.6z"/>
	<path fill="#FFFFFF" d="M49.6,17.1l-5.6-5.6l4.1-4.1l0.9,0.9l-3,3l1.2,1.2l2.8-2.8l0.9,0.9l-2.8,2.8l1.5,1.5l3.1-3.1l0.9,0.9   L49.6,17.1z"/>
	<path fill="#FFFFFF" d="M49.3,6.3l2.1-2.1c0.5-0.5,0.9-0.8,1.2-1C52.9,3.1,53.4,3,53.8,3s1,0.1,1.4,0.4c0.5,0.2,1,0.6,1.5,1.1   c0.5,0.5,0.8,0.9,1,1.4c0.3,0.5,0.4,1.1,0.4,1.6c0,0.4-0.1,0.8-0.3,1.2c-0.2,0.3-0.5,0.7-0.9,1.1l-2.1,2.1L49.3,6.3z M51.3,6.2   L55,9.8L55.9,9c0.3-0.3,0.5-0.6,0.6-0.7c0.1-0.2,0.2-0.5,0.2-0.7c0-0.2-0.1-0.5-0.2-0.8C56.3,6.4,56,6,55.6,5.6   c-0.4-0.4-0.8-0.7-1.1-0.9c-0.3-0.2-0.6-0.2-0.9-0.2c-0.3,0-0.5,0.1-0.8,0.3c-0.2,0.1-0.5,0.4-1,0.9L51.3,6.2z"/>
</g>
</svg>