<?xml version="1.0" encoding="utf-8"?>
<!-- Generator: Adobe Illustrator 22.1.0, SVG Export Plug-In . SVG Version: 6.00 Build 0)  -->
<svg version="1.1" id="Layer_1" xmlns="http://www.w3.org/2000/svg" xmlns:xlink="http://www.w3.org/1999/xlink" x="0px" y="0px"
	 width="24.4px" height="20px" viewBox="0 0 24.4 20" style="enable-background:new 0 0 24.4 20;" xml:space="preserve">
<style type="text/css">
	.st0{fill:#FFFFFF;}
</style>
<g>
	<circle class="st0" cx="14.3" cy="1.8" r="1.8"/>
	<path class="st0" d="M23.9,13.6l-4.6,0.9l-1.5-7.6l1.7,0.7v3.2h1.8V6.4l-4.9-2.1c-0.2,0-0.5-0.1-0.7-0.1c-0.7,0-1.3,0.3-1.6,0.9
		l-0.9,1.5c-0.7,1.3-2.2,2.2-4,2.2v1.8c2.1,0,3.9-0.9,5.2-2.3l0.6,2.8l-2,1.8V20h1.8v-5.7l2-1.8l0.9,4.2l6.6-1.3L23.9,13.6z"/>
	<path class="st0" d="M7.4,14.9L6.2,6.8C6,6.8,5.9,6.7,5.7,6.7C5.2,6.6,4.7,6.8,4.4,7.3l-0.9,1c-0.7,0.9-2,1.5-3.2,1.3L0,11.1
		c1.6,0.2,3.1-0.3,4.2-1.3L4.3,12l-1.7,1.3l-0.7,5.4L3.2,19l0.6-4.3l1.7-1.3l0.3,3.2l5.2-0.5L11,14.7L7.4,14.9z"/>
	<ellipse class="st0" cx="4.8" cy="4.5" rx="2" ry="2"/>
</g>
</svg>
