<?xml version="1.0" encoding="utf-8"?>
<!-- Generator: Adobe Illustrator 21.0.2, SVG Export Plug-In . SVG Version: 6.00 Build 0)  -->
<svg version="1.1" id="Layer_1" xmlns="http://www.w3.org/2000/svg" xmlns:xlink="http://www.w3.org/1999/xlink" x="0px" y="0px"
	 width="21px" height="20px" viewBox="0 0 21 20" style="enable-background:new 0 0 21 20;" xml:space="preserve">
<style type="text/css">
	.st0{fill:#FFFFFF;}
	.st1{fill:none;stroke:#FFFFFF;stroke-width:0.725;stroke-miterlimit:10;}
	.st2{fill:none;stroke:#FFFFFF;stroke-miterlimit:10;}
</style>
<path class="st0" d="M8.2,0c4.1,0,7.4,3.3,7.4,7.4c0,1.8-0.7,3.5-1.8,4.8l0.3,0.3H15l5.7,5.7L19,20l-5.7-5.7v-0.9L13,13.1
	c-1.3,1.1-3,1.8-4.8,1.8c-4.1,0-7.4-3.3-7.4-7.4S4.1,0,8.2,0 M8.2,2.3C5.3,2.3,3,4.6,3,7.4s2.3,5.1,5.1,5.1s5.1-2.3,5.1-5.1
	S11,2.3,8.2,2.3z"/>
</svg>
