<?xml version="1.0" encoding="UTF-8"?>
<svg version="1.1" id="Layer_1" xmlns="http://www.w3.org/2000/svg" xmlns:xlink="http://www.w3.org/1999/xlink" x="0px" y="0px" width="300px" height="16.4px" viewBox="0 0 300 16.4" style="enable-background:new 0 0 300 16.4;" xml:space="preserve">
<style type="text/css">
	.movers_need_shakers{fill:#FFEC00;}
	.get_foxtons_on_it{fill:#FFFFFF;}
</style>
<g class="movers_need_shakers">
	<path d="M0,0.3h3.9L6,9.2l2.2-8.9H12v15.8H9V6.7l-2.1,9.4H5.1L3,6.7v9.4H0V0.3z"/>
	<path d="M15.4,15.8c-0.7-0.4-1.2-1-1.6-1.7c-0.2-0.4-0.3-0.7-0.4-1.2c-0.1-0.4-0.2-1-0.2-1.7c0-0.7-0.1-1.7-0.1-3   c0-1.3,0-2.3,0-2.9c0-0.7,0.1-1.2,0.2-1.6c0.1-0.4,0.2-0.8,0.3-1.1c0.4-0.8,0.9-1.4,1.6-1.8C16,0.2,16.9,0,17.9,0   c1,0,1.9,0.2,2.6,0.6s1.2,1,1.6,1.9c0.1,0.3,0.3,0.7,0.3,1.1c0.1,0.4,0.1,1,0.2,1.6c0,0.7,0,1.7,0,2.9c0,1.3,0,2.3,0,2.9   c0,0.7-0.1,1.2-0.2,1.6c-0.1,0.4-0.2,0.8-0.3,1.1c-0.4,0.8-0.9,1.4-1.6,1.9c-0.7,0.4-1.6,0.6-2.6,0.6   C16.9,16.4,16.1,16.2,15.4,15.8z M18.7,13.3c0.2-0.1,0.4-0.3,0.5-0.6c0.1-0.1,0.1-0.3,0.1-0.6c0-0.2,0.1-0.7,0.1-1.3   c0-0.7,0-1.5,0-2.6s0-1.9,0-2.6c0-0.7,0-1.1-0.1-1.3c0-0.2-0.1-0.4-0.1-0.6c-0.1-0.3-0.3-0.5-0.5-0.6c-0.2-0.1-0.5-0.2-0.8-0.2   c-0.7,0-1.1,0.3-1.3,0.8c-0.1,0.1-0.1,0.3-0.1,0.6s0,0.7-0.1,1.3c0,0.7,0,1.5,0,2.6s0,1.9,0,2.6c0,0.7,0,1.1,0.1,1.3   c0,0.2,0.1,0.4,0.1,0.6c0.2,0.6,0.7,0.8,1.3,0.8C18.2,13.5,18.5,13.4,18.7,13.3z"/>
	<path d="M32.6,0.3l-3.3,15.8h-3.1L22.8,0.3h3.2L27.7,11l1.7-10.7H32.6z"/>
	<path d="M33.2,0.3h6.4v2.8h-3.3v3.3h3.2v2.8h-3.2v4.1h3.3v2.8h-6.4V0.3z"/>
	<path d="M48.6,8.7c0.2,0.4,0.3,0.9,0.3,1.5v5.9h-3.2v-5.8c0-0.4-0.1-0.7-0.2-0.8c-0.2-0.2-0.4-0.2-0.8-0.2h-0.8v6.9   h-3.2V0.3h4.8c0.9,0,1.5,0.1,2.1,0.4c0.5,0.2,0.9,0.6,1.2,1.1c0.1,0.3,0.2,0.6,0.2,0.9S49,3.7,49,4.5c0,0.7,0,1.3-0.1,1.6   c0,0.3-0.1,0.5-0.2,0.8c-0.2,0.5-0.6,0.8-1.1,1C48.1,8,48.4,8.3,48.6,8.7z M45.8,5.7c0-0.2,0-0.6,0-1.1c0-0.4,0-0.7,0-0.9   c0-0.2,0-0.3-0.1-0.4c-0.1-0.2-0.2-0.3-0.4-0.4c-0.2-0.1-0.4-0.1-0.7-0.1h-0.8v3.9h0.8c0.3,0,0.5,0,0.6-0.1   c0.2-0.1,0.3-0.2,0.4-0.4C45.7,6.1,45.7,5.9,45.8,5.7z"/>
	<path d="M51.6,15.9c-0.7-0.3-1.1-0.8-1.4-1.5C50.1,14.2,50,14,50,13.8c-0.1-0.2-0.1-0.5-0.1-0.9c0-0.4,0-0.9,0-1.6h3.3   c0,0.6,0,1.1,0,1.3c0,0.3,0,0.5,0.1,0.6c0.1,0.4,0.5,0.5,0.9,0.5c0.2,0,0.4,0,0.6-0.1c0.1-0.1,0.3-0.2,0.3-0.4   c0-0.1,0.1-0.2,0.1-0.4c0-0.2,0-0.5,0-0.9c0-0.4,0-0.7,0-0.9c0-0.2-0.1-0.4-0.1-0.5c-0.1-0.2-0.2-0.3-0.4-0.5   C54.5,10,54.3,9.8,54,9.7c-0.2-0.1-0.5-0.2-0.8-0.4l-0.4-0.2c-0.6-0.3-1.2-0.7-1.6-1c-0.4-0.3-0.7-0.7-0.9-1.1   c-0.1-0.3-0.2-0.7-0.3-1.1C50,5.6,50,5.1,50,4.3c0-0.6,0-1.1,0.1-1.4c0-0.3,0.1-0.6,0.3-1c0.3-0.6,0.7-1.1,1.4-1.4   C52.4,0.2,53.2,0,54.1,0c0.9,0,1.7,0.2,2.4,0.5c0.6,0.3,1.1,0.8,1.4,1.4c0.1,0.2,0.2,0.4,0.2,0.6c0,0.2,0.1,0.5,0.1,0.9   c0,0.4,0,0.9,0,1.5H55c0-0.6,0-1,0-1.3c0-0.3,0-0.5-0.1-0.6c-0.1-0.3-0.4-0.5-0.8-0.5c-0.2,0-0.4,0-0.5,0.1   c-0.1,0.1-0.2,0.2-0.3,0.3c0,0.1,0,0.2-0.1,0.4c0,0.2,0,0.4,0,0.7c0,0.4,0,0.7,0,0.8s0.1,0.3,0.1,0.5c0.1,0.2,0.3,0.4,0.5,0.5   c0.2,0.1,0.6,0.3,1.1,0.5l0.4,0.2c0.7,0.3,1.3,0.7,1.8,1c0.4,0.3,0.8,0.7,1,1.2c0.1,0.3,0.2,0.7,0.3,1.1c0,0.4,0.1,1,0.1,1.8   c0,0.7,0,1.3-0.1,1.6c0,0.3-0.1,0.7-0.3,1c-0.3,0.7-0.8,1.2-1.5,1.5c-0.7,0.3-1.5,0.5-2.6,0.5C53.1,16.4,52.3,16.2,51.6,15.9z"/>
	<path d="M62.3,0.3h3l3.5,8.6V0.3h3.1v15.8h-2.9l-3.6-8.8v8.8h-3V0.3z"/>
	<path d="M73.1,0.3h6.4v2.8h-3.3v3.3h3.2v2.8h-3.2v4.1h3.3v2.8h-6.4V0.3z"/>
	<path d="M80.6,0.3H87v2.8h-3.3v3.3h3.2v2.8h-3.2v4.1H87v2.8h-6.4V0.3z"/>
	<path d="M88,0.3h4.3c1.1,0,1.9,0.2,2.7,0.6c0.7,0.4,1.3,1,1.6,1.8c0.1,0.3,0.3,0.6,0.3,1S97,4.6,97,5.2   c0,0.7,0,1.7,0,3s0,2.3,0,3c0,0.7-0.1,1.2-0.1,1.5c-0.1,0.4-0.2,0.7-0.3,1c-0.4,0.8-0.9,1.4-1.6,1.8c-0.7,0.4-1.6,0.6-2.7,0.6H88   V0.3z M91.9,13.4c0.4,0,0.8-0.1,1.1-0.2c0.3-0.1,0.5-0.4,0.6-0.7c0.1-0.1,0.1-0.3,0.1-0.5c0-0.2,0.1-0.6,0.1-1.3c0-0.6,0-1.5,0-2.5   c0-1,0-1.9,0-2.5c0-0.6,0-1.1-0.1-1.3c0-0.2-0.1-0.4-0.1-0.5c-0.1-0.3-0.3-0.5-0.6-0.7C92.7,3.1,92.4,3,91.9,3h-0.7v10.3H91.9z"/>
	<path d="M102.4,15.9c-0.7-0.3-1.1-0.8-1.4-1.5c-0.1-0.2-0.2-0.4-0.2-0.6c-0.1-0.2-0.1-0.5-0.1-0.9c0-0.4,0-0.9,0-1.6   h3.3c0,0.6,0,1.1,0,1.3c0,0.3,0,0.5,0.1,0.6c0.1,0.4,0.5,0.5,0.9,0.5c0.2,0,0.4,0,0.6-0.1c0.1-0.1,0.3-0.2,0.3-0.4   c0-0.1,0.1-0.2,0.1-0.4c0-0.2,0-0.5,0-0.9c0-0.4,0-0.7,0-0.9c0-0.2-0.1-0.4-0.1-0.5c-0.1-0.2-0.2-0.3-0.4-0.5   c-0.2-0.1-0.4-0.3-0.6-0.4c-0.2-0.1-0.5-0.2-0.8-0.4l-0.4-0.2c-0.6-0.3-1.2-0.7-1.6-1c-0.4-0.3-0.7-0.7-0.9-1.1   c-0.1-0.3-0.2-0.7-0.3-1.1c-0.1-0.4-0.1-0.9-0.1-1.7c0-0.6,0-1.1,0.1-1.4c0-0.3,0.1-0.6,0.3-1c0.3-0.6,0.7-1.1,1.4-1.4   C103.2,0.2,104,0,105,0c0.9,0,1.7,0.2,2.4,0.5c0.6,0.3,1.1,0.8,1.4,1.4c0.1,0.2,0.2,0.4,0.2,0.6c0,0.2,0.1,0.5,0.1,0.9   c0,0.4,0,0.9,0,1.5h-3.2c0-0.6,0-1,0-1.3c0-0.3,0-0.5-0.1-0.6c-0.1-0.3-0.4-0.5-0.8-0.5c-0.2,0-0.4,0-0.5,0.1   c-0.1,0.1-0.2,0.2-0.3,0.3c0,0.1,0,0.2-0.1,0.4c0,0.2,0,0.4,0,0.7c0,0.4,0,0.7,0,0.8s0.1,0.3,0.1,0.5c0.1,0.2,0.3,0.4,0.5,0.5   c0.2,0.1,0.6,0.3,1.1,0.5l0.4,0.2c0.7,0.3,1.3,0.7,1.8,1c0.4,0.3,0.8,0.7,1,1.2c0.1,0.3,0.2,0.7,0.3,1.1c0,0.4,0.1,1,0.1,1.8   c0,0.7,0,1.3-0.1,1.6c0,0.3-0.1,0.7-0.3,1c-0.3,0.7-0.8,1.2-1.5,1.5c-0.7,0.3-1.5,0.5-2.6,0.5C103.9,16.4,103.1,16.2,102.4,15.9z"/>
	<path d="M110.3,0.3h3.2v6.1h2.5V0.3h3.2v15.8h-3.2V9.2h-2.5v6.9h-3.2V0.3z"/>
	<path d="M126.5,13.6h-3.1l-0.4,2.5h-3.2l2.7-15.8h4.9l2.7,15.8h-3.2L126.5,13.6z M126.1,11l-1.2-8.1h0l-1.2,8.1H126.1z   "/>
	<path d="M136.6,16.1l-2.8-7.2v7.2h-3.2V0.3h3.2v6l2.4-6h3.4l-3,7.2l3.5,8.6H136.6z"/>
	<path d="M140.7,0.3h6.4v2.8h-3.3v3.3h3.2v2.8h-3.2v4.1h3.3v2.8h-6.4V0.3z"/>
	<path d="M156,8.7c0.2,0.4,0.3,0.9,0.3,1.5v5.9h-3.2v-5.8c0-0.4-0.1-0.7-0.2-0.8c-0.2-0.2-0.4-0.2-0.8-0.2h-0.8v6.9   h-3.2V0.3h4.8c0.9,0,1.5,0.1,2.1,0.4c0.5,0.2,0.9,0.6,1.2,1.1c0.1,0.3,0.2,0.6,0.2,0.9s0.1,0.9,0.1,1.8c0,0.7,0,1.3-0.1,1.6   c0,0.3-0.1,0.5-0.2,0.8c-0.2,0.5-0.6,0.8-1.1,1C155.5,8,155.9,8.3,156,8.7z M153.2,5.7c0-0.2,0-0.6,0-1.1c0-0.4,0-0.7,0-0.9   c0-0.2,0-0.3-0.1-0.4c-0.1-0.2-0.2-0.3-0.4-0.4c-0.2-0.1-0.4-0.1-0.7-0.1h-0.8v3.9h0.8c0.3,0,0.5,0,0.6-0.1   c0.2-0.1,0.3-0.2,0.4-0.4C153.2,6.1,153.2,5.9,153.2,5.7z"/>
	<path d="M159,15.9c-0.7-0.3-1.1-0.8-1.4-1.5c-0.1-0.2-0.2-0.4-0.2-0.6c-0.1-0.2-0.1-0.5-0.1-0.9c0-0.4,0-0.9,0-1.6h3.3   c0,0.6,0,1.1,0,1.3c0,0.3,0,0.5,0.1,0.6c0.1,0.4,0.5,0.5,0.9,0.5c0.2,0,0.4,0,0.6-0.1c0.1-0.1,0.3-0.2,0.3-0.4   c0-0.1,0.1-0.2,0.1-0.4c0-0.2,0-0.5,0-0.9c0-0.4,0-0.7,0-0.9c0-0.2-0.1-0.4-0.1-0.5c-0.1-0.2-0.2-0.3-0.4-0.5   c-0.2-0.1-0.4-0.3-0.6-0.4c-0.2-0.1-0.5-0.2-0.8-0.4l-0.4-0.2c-0.6-0.3-1.2-0.7-1.6-1c-0.4-0.3-0.7-0.7-0.9-1.1   c-0.1-0.3-0.2-0.7-0.3-1.1c-0.1-0.4-0.1-0.9-0.1-1.7c0-0.6,0-1.1,0.1-1.4c0-0.3,0.1-0.6,0.3-1c0.3-0.6,0.7-1.1,1.4-1.4   c0.6-0.3,1.4-0.5,2.4-0.5c0.9,0,1.7,0.2,2.4,0.5c0.6,0.3,1.1,0.8,1.4,1.4c0.1,0.2,0.2,0.4,0.2,0.6c0,0.2,0.1,0.5,0.1,0.9   c0,0.4,0,0.9,0,1.5h-3.2c0-0.6,0-1,0-1.3c0-0.3,0-0.5-0.1-0.6c-0.1-0.3-0.4-0.5-0.8-0.5c-0.2,0-0.4,0-0.5,0.1   c-0.1,0.1-0.2,0.2-0.3,0.3c0,0.1,0,0.2-0.1,0.4c0,0.2,0,0.4,0,0.7c0,0.4,0,0.7,0,0.8c0,0.2,0.1,0.3,0.1,0.5   c0.1,0.2,0.3,0.4,0.5,0.5c0.2,0.1,0.6,0.3,1.1,0.5l0.4,0.2c0.7,0.3,1.3,0.7,1.8,1c0.4,0.3,0.8,0.7,1,1.2c0.1,0.3,0.2,0.7,0.3,1.1   c0,0.4,0.1,1,0.1,1.8c0,0.7,0,1.3-0.1,1.6c0,0.3-0.1,0.7-0.3,1c-0.3,0.7-0.8,1.2-1.5,1.5c-0.7,0.3-1.5,0.5-2.6,0.5   C160.6,16.4,159.7,16.2,159,15.9z"/>
</g>
<g class="get_foxtons_on_it">
	<path d="M178.9,7.8V9c0,1.1,0,2,0,2.6c0,0.6-0.1,1.1-0.2,1.4c-0.1,0.4-0.2,0.7-0.3,1c-0.3,0.8-0.9,1.4-1.5,1.8   c-0.7,0.4-1.5,0.6-2.5,0.6c-1,0-1.9-0.2-2.6-0.6c-0.7-0.4-1.3-1-1.6-1.9c-0.1-0.3-0.3-0.7-0.3-1.1c-0.1-0.4-0.1-0.9-0.1-1.6   c0-0.7,0-1.7,0-3s0-2.3,0-3c0-0.7,0.1-1.2,0.1-1.6c0.1-0.4,0.2-0.8,0.3-1.1c0.4-0.8,0.9-1.4,1.6-1.9s1.6-0.6,2.6-0.6   c1.3,0,2.4,0.4,3.2,1.1c0.5,0.4,0.8,1,1,1.6c0.2,0.6,0.3,1.5,0.3,2.6h-3.2c0-0.7-0.1-1.3-0.1-1.6c-0.1-0.3-0.2-0.5-0.3-0.6   c-0.2-0.2-0.6-0.3-0.9-0.3c-0.6,0-1.1,0.3-1.3,0.8c-0.1,0.1-0.1,0.3-0.1,0.6c0,0.2-0.1,0.7-0.1,1.4c0,0.7,0,1.6,0,2.6s0,2,0,2.6   c0,0.7,0,1.1,0.1,1.4c0,0.2,0.1,0.4,0.1,0.6c0.2,0.5,0.7,0.8,1.3,0.8c0.6,0,1-0.2,1.3-0.7c0.1-0.1,0.1-0.3,0.1-0.6   c0-0.3,0-0.9,0-1.8h-1.5V7.8H178.9z"/>
	<path d="M180,0.3h6.4v2.8h-3.3v3.3h3.2v2.8h-3.2v4.1h3.3v2.8H180V0.3z"/>
	<path d="M188.8,3.1h-1.9V0.3h7v2.8H192v13h-3.2V3.1z"/>
	<path d="M197.5,0.3h5.8v2.8h-2.6v3.3h2.6v2.8h-2.6v6.9h-3.2V0.3z"/>
	<path d="M206.4,15.8c-0.7-0.4-1.2-1-1.6-1.7c-0.2-0.4-0.3-0.7-0.4-1.2c-0.1-0.4-0.2-1-0.2-1.7c0-0.7-0.1-1.7-0.1-3   c0-1.3,0-2.3,0-2.9c0-0.7,0.1-1.2,0.2-1.6s0.2-0.8,0.3-1.1c0.4-0.8,0.9-1.4,1.6-1.8c0.7-0.4,1.6-0.6,2.6-0.6c1,0,1.9,0.2,2.6,0.6   c0.7,0.4,1.2,1,1.6,1.9c0.1,0.3,0.3,0.7,0.3,1.1c0.1,0.4,0.1,1,0.2,1.6c0,0.7,0,1.7,0,2.9c0,1.3,0,2.3,0,2.9c0,0.7-0.1,1.2-0.2,1.6   c-0.1,0.4-0.2,0.8-0.3,1.1c-0.4,0.8-0.9,1.4-1.6,1.9c-0.7,0.4-1.6,0.6-2.6,0.6C207.9,16.4,207.1,16.2,206.4,15.8z M209.7,13.3   c0.2-0.1,0.4-0.3,0.5-0.6c0.1-0.1,0.1-0.3,0.1-0.6c0-0.2,0.1-0.7,0.1-1.3c0-0.7,0-1.5,0-2.6s0-1.9,0-2.6c0-0.7,0-1.1-0.1-1.3   c0-0.2-0.1-0.4-0.1-0.6c-0.1-0.3-0.3-0.5-0.5-0.6c-0.2-0.1-0.5-0.2-0.8-0.2c-0.7,0-1.1,0.3-1.3,0.8c-0.1,0.1-0.1,0.3-0.1,0.6   c0,0.2,0,0.7-0.1,1.3s0,1.5,0,2.6s0,1.9,0,2.6c0,0.7,0,1.1,0.1,1.3c0,0.2,0.1,0.4,0.1,0.6c0.2,0.6,0.7,0.8,1.3,0.8   C209.2,13.5,209.5,13.4,209.7,13.3z"/>
	<path d="M216.7,7.7l-2.8-7.5h3.3l1.5,5.2l1.6-5.2h3.3l-2.8,7.5l3.1,8.3h-3.4l-1.8-6l-1.8,6h-3.4L216.7,7.7z"/>
	<path d="M226,3.1h-1.9V0.3h7v2.8h-1.9v13H226V3.1z"/>
	<path d="M233.7,15.8c-0.7-0.4-1.2-1-1.6-1.7c-0.2-0.4-0.3-0.7-0.4-1.2c-0.1-0.4-0.2-1-0.2-1.7c0-0.7-0.1-1.7-0.1-3   c0-1.3,0-2.3,0-2.9c0-0.7,0.1-1.2,0.2-1.6c0.1-0.4,0.2-0.8,0.3-1.1c0.4-0.8,0.9-1.4,1.6-1.8c0.7-0.4,1.6-0.6,2.6-0.6   c1,0,1.9,0.2,2.6,0.6c0.7,0.4,1.2,1,1.6,1.9c0.1,0.3,0.3,0.7,0.3,1.1c0.1,0.4,0.1,1,0.2,1.6c0,0.7,0,1.7,0,2.9c0,1.3,0,2.3,0,2.9   c0,0.7-0.1,1.2-0.2,1.6c-0.1,0.4-0.2,0.8-0.3,1.1c-0.4,0.8-0.9,1.4-1.6,1.9c-0.7,0.4-1.6,0.6-2.6,0.6   C235.3,16.4,234.4,16.2,233.7,15.8z M237.1,13.3c0.2-0.1,0.4-0.3,0.5-0.6c0.1-0.1,0.1-0.3,0.1-0.6c0-0.2,0.1-0.7,0.1-1.3   c0-0.7,0-1.5,0-2.6s0-1.9,0-2.6c0-0.7,0-1.1-0.1-1.3c0-0.2-0.1-0.4-0.1-0.6c-0.1-0.3-0.3-0.5-0.5-0.6c-0.2-0.1-0.5-0.2-0.8-0.2   c-0.7,0-1.1,0.3-1.3,0.8c-0.1,0.1-0.1,0.3-0.1,0.6c0,0.2,0,0.7-0.1,1.3c0,0.7,0,1.5,0,2.6s0,1.9,0,2.6c0,0.7,0,1.1,0.1,1.3   c0,0.2,0.1,0.4,0.1,0.6c0.2,0.6,0.7,0.8,1.3,0.8C236.6,13.5,236.9,13.4,237.1,13.3z"/>
	<path d="M242.1,0.3h3l3.5,8.6V0.3h3.1v15.8h-2.9l-3.6-8.8v8.8h-3V0.3z"/>
	<path d="M254.3,15.9c-0.7-0.3-1.1-0.8-1.4-1.5c-0.1-0.2-0.2-0.4-0.2-0.6c-0.1-0.2-0.1-0.5-0.1-0.9c0-0.4,0-0.9,0-1.6   h3.3c0,0.6,0,1.1,0,1.3c0,0.3,0,0.5,0.1,0.6c0.1,0.4,0.5,0.5,0.9,0.5c0.2,0,0.4,0,0.6-0.1c0.1-0.1,0.3-0.2,0.3-0.4   c0-0.1,0.1-0.2,0.1-0.4c0-0.2,0-0.5,0-0.9c0-0.4,0-0.7,0-0.9c0-0.2-0.1-0.4-0.1-0.5c-0.1-0.2-0.2-0.3-0.4-0.5   c-0.2-0.1-0.4-0.3-0.6-0.4c-0.2-0.1-0.5-0.2-0.8-0.4l-0.4-0.2c-0.6-0.3-1.2-0.7-1.6-1c-0.4-0.3-0.7-0.7-0.9-1.1   c-0.1-0.3-0.2-0.7-0.3-1.1c-0.1-0.4-0.1-0.9-0.1-1.7c0-0.6,0-1.1,0.1-1.4c0-0.3,0.1-0.6,0.3-1c0.3-0.6,0.7-1.1,1.4-1.4   c0.6-0.3,1.4-0.5,2.4-0.5c0.9,0,1.7,0.2,2.4,0.5c0.6,0.3,1.1,0.8,1.4,1.4c0.1,0.2,0.2,0.4,0.2,0.6c0,0.2,0.1,0.5,0.1,0.9   c0,0.4,0,0.9,0,1.5h-3.2c0-0.6,0-1,0-1.3c0-0.3,0-0.5-0.1-0.6c-0.1-0.3-0.4-0.5-0.8-0.5c-0.2,0-0.4,0-0.5,0.1   c-0.1,0.1-0.2,0.2-0.3,0.3c0,0.1,0,0.2-0.1,0.4c0,0.2,0,0.4,0,0.7c0,0.4,0,0.7,0,0.8c0,0.2,0.1,0.3,0.1,0.5   c0.1,0.2,0.3,0.4,0.5,0.5c0.2,0.1,0.6,0.3,1.1,0.5l0.4,0.2c0.7,0.3,1.3,0.7,1.8,1c0.4,0.3,0.8,0.7,1,1.2c0.1,0.3,0.2,0.7,0.3,1.1   c0,0.4,0.1,1,0.1,1.8c0,0.7,0,1.3-0.1,1.6c0,0.3-0.1,0.7-0.3,1c-0.3,0.7-0.8,1.2-1.5,1.5c-0.7,0.3-1.5,0.5-2.6,0.5   C255.8,16.4,255,16.2,254.3,15.9z"/>
	<path d="M267.1,15.8c-0.7-0.4-1.2-1-1.6-1.7c-0.2-0.4-0.3-0.7-0.4-1.2c-0.1-0.4-0.2-1-0.2-1.7c0-0.7-0.1-1.7-0.1-3   c0-1.3,0-2.3,0-2.9c0-0.7,0.1-1.2,0.2-1.6c0.1-0.4,0.2-0.8,0.3-1.1c0.4-0.8,0.9-1.4,1.6-1.8c0.7-0.4,1.6-0.6,2.6-0.6   c1,0,1.9,0.2,2.6,0.6c0.7,0.4,1.2,1,1.6,1.9c0.1,0.3,0.3,0.7,0.3,1.1c0.1,0.4,0.1,1,0.2,1.6c0,0.7,0,1.7,0,2.9c0,1.3,0,2.3,0,2.9   c0,0.7-0.1,1.2-0.2,1.6c-0.1,0.4-0.2,0.8-0.3,1.1c-0.4,0.8-0.9,1.4-1.6,1.9c-0.7,0.4-1.6,0.6-2.6,0.6   C268.6,16.4,267.8,16.2,267.1,15.8z M270.4,13.3c0.2-0.1,0.4-0.3,0.5-0.6c0.1-0.1,0.1-0.3,0.1-0.6c0-0.2,0.1-0.7,0.1-1.3   c0-0.7,0-1.5,0-2.6s0-1.9,0-2.6c0-0.7,0-1.1-0.1-1.3c0-0.2-0.1-0.4-0.1-0.6c-0.1-0.3-0.3-0.5-0.5-0.6c-0.2-0.1-0.5-0.2-0.8-0.2   c-0.7,0-1.1,0.3-1.3,0.8c-0.1,0.1-0.1,0.3-0.1,0.6c0,0.2,0,0.7-0.1,1.3c0,0.7,0,1.5,0,2.6s0,1.9,0,2.6c0,0.7,0,1.1,0.1,1.3   c0,0.2,0.1,0.4,0.1,0.6c0.2,0.6,0.7,0.8,1.3,0.8C269.9,13.5,270.2,13.4,270.4,13.3z"/>
	<path d="M275.5,0.3h3l3.5,8.6V0.3h3.1v15.8h-2.9l-3.6-8.8v8.8h-3V0.3z"/>
	<path d="M289.1,0.3h3.2v15.8h-3.2V0.3z"/>
	<path d="M294.9,3.1H293V0.3h7v2.8h-1.9v13h-3.2V3.1z"/>
</g>
</svg>