<?xml version="1.0" encoding="utf-8"?>
<!-- Generator: Adobe Illustrator 22.1.0, SVG Export Plug-In . SVG Version: 6.00 Build 0)  -->
<svg version="1.1" id="Layer_1" xmlns="http://www.w3.org/2000/svg" xmlns:xlink="http://www.w3.org/1999/xlink" x="0px" y="0px"
	 width="27.4px" height="19.9px" viewBox="0 0 27.4 19.9" style="enable-background:new 0 0 27.4 19.9;" xml:space="preserve">
<style type="text/css">
	.st0{fill:#FFFFFF;}
</style>
<path class="st0" d="M17.5,0c5.5,0,9.9,4.4,9.9,9.9s-4.4,10-9.9,10S7.6,15.5,7.6,10S11.9,0,17.5,0 M17.5,2.5c-4.2,0-7.4,3.4-7.4,7.4
	s3.4,7.4,7.4,7.4s7.4-3.4,7.4-7.4S21.5,2.5,17.5,2.5 M16.2,5H18v4.7l2.9,2.9l-1.3,1.3l-3.4-3.4V5 M1.3,17.5c-0.7,0-1.3-0.5-1.3-1.3
	c0-0.7,0.5-1.3,1.3-1.3h4.8c0.4,0.9,0.9,1.7,1.4,2.5H1.3 M2.5,11.2c-0.7,0-1.3-0.5-1.3-1.3c0-0.7,0.5-1.3,1.3-1.3h2.6v1.3v1.3H2.5
	 M3.8,5C3.1,5,2.5,4.4,2.5,3.6S3,2.3,3.8,2.3h3.8C6.9,3.3,6.4,4.2,6,5H3.8z"/>
</svg>
